# xmcd CD database file
#
# Track frame offsets:
#	180
#	44463
#	81100
#	124909
#	156645
#	183270
#
# Disc length: 3348 seconds
#
# Revision: 0
# Processed by: cddbd v1.4PL0 Copyright (c) Steve Scherf et al.
# Submitted via: CDex 1.50Beta5
#
DISCID=4d0d1206
DTITLE=Ben Webster and Dexter Gordon - Baden 1972
DYEAR=1972
DGENRE=Jazz
TTITLE0=Some Other Blues
TTITLE1=In A Mellow Tone
TTITLE2=Blues in F
TTITLE3=Sunday
TTITLE4=Didn't We
TTITLE5=Perdido
EXTD=YEAR: 1972
EXTT0=
EXTT1=
EXTT2=
EXTT3=
EXTT4=
EXTT5=
PLAYORDER=
